{"title":"The Boondock Saints {Unrated 2006} DVDRip.Xvid~Wolftatt2~","uid":6770712,"size":1895427231,"categoryP":"video","categoryS":"movies","magnet":"?xt=urn:btih:6c36d8976ffe0504df0906806c813bf51cd41acf&amp;dn=The+Boondock+Saints+%7BUnrated+2006%7D+DVDRip.Xvid%7EWolftatt2%7E&amp;tr=udp%3A%2F%2Ftracker.openbittorrent.com%3A80&amp;tr=udp%3A%2F%2Fopen.demonii.com%3A1337&amp;tr=udp%3A%2F%2Ftracker.coppersurfer.tk%3A6969&amp;tr=udp%3A%2F%2Fexodus.desync.com%3A6969","seeders":2,"leechers":1,"uploader":"Applemaggot","files":9,"time":1319565280,"description":"The Boondock Saints {Unrated 2006}\n\nTwo Irish brothers accidentally killed mafia thugs. They turned themselves in and were released as heroes. They then see it as a calling by God and started knocking off mafia gang members one by one. Willem Dafoe plays the detective trying to figure out the killings, but the closer he was to catching the Irish brothers, the more he thinks the brothers are doing the right thing.\n &lt;a href=&quot;\nhttp://www.imdb.com/title/tt0144117/&quot; rel=&quot;nofollow&quot; target=&quot;_NEW&quot;&gt;\nhttp://www.imdb.com/title/tt0144117/&lt;/a&gt;\n\nGeneral\nComplete name :The Boondock Saints {Unrated 2006} DVDRip.Xvid~Wolftatt2~.avi\nFormat : AVI\nFormat/Info : Audio Video Interleave\nFormat profile : OpenDML\nFile size : 1.76 GiB\nDuration : 1h 48mn\nOverall bit rate : 2 323 Kbps\nMovie name : BOONDOCK_SAINTS_D1.Title1.DVDRip\nWriting application : Lavf52.78.4\nOriginal source form/Name : BOONDOCK_SAINTS_D1\n\nVideo\nID : 0\nFormat : MPEG-4 Visual\nFormat profile : Advanced Simple@L5\nFormat settings, BVOP : 2\nFormat settings, QPel : No\nFormat settings, GMC : No warppoints\nFormat settings, Matrix : Default (H.263)\nMuxing mode : Packed bitstream\nCodec ID : XVID\nCodec ID/Hint : XviD\nDuration : 1h 48mn\nBit rate : 1 864 Kbps\nWidth : 720 pixels\nHeight : 540 pixels\nDisplay aspect ratio : 4:3\nFrame rate : 23.976 fps\nColor space : YUV\nChroma subsampling : 4:2:0\nBit depth : 8 bits\nScan type : Progressive\nCompression mode : Lossy\nBits/(Pixel*Frame) : 0.200\nStream size : 1.41 GiB (80%)\nWriting library : XviD 1.2.1 (UTC 2008-12-04)\n\nAudio\nID : 1\nFormat : AC-3\nFormat/Info : Audio Coding 3\nMode extension : CM (complete main)\nCodec ID : 2000\nDuration : 1h 48mn\nBit rate mode : Constant\nBit rate : 448 Kbps\nChannel(s) : 6 channels\nChannel positions : Front: L C R, Side: L R, LFE\nSampling rate : 48.0 KHz\nBit depth : 16 bits\nCompression mode : Lossy\nStream size : 347 MiB (19%)\nAlignment : Aligned on interleaves\nInterleave, duration : 32 ms (0.77 video frame)\nInterleave, preload duration : 32 ms\n\n\n\nThanks for Downloading!\n\nEnjoy, and Please Seed!\n\n~Wolftatt2~","torrent":{"xt":"urn:btih:6c36d8976ffe0504df0906806c813bf51cd41acf","amp;dn":"The+Boondock+Saints+%7BUnrated+2006%7D+DVDRip.Xvid%7EWolftatt2%7E","amp;tr":["udp%3A%2F%2Ftracker.openbittorrent.com%3A80","udp%3A%2F%2Fopen.demonii.com%3A1337","udp%3A%2F%2Ftracker.coppersurfer.tk%3A6969","udp%3A%2F%2Fexodus.desync.com%3A6969"],"infoHash":"6c36d8976ffe0504df0906806c813bf51cd41acf","infoHashBuffer":{"type":"Buffer","data":[108,54,216,151,111,254,5,4,223,9,6,128,108,129,59,245,28,212,26,207]},"announce":[],"urlList":[]}}